<svg xmlns="http://www.w3.org/2000/svg" viewBox="0 0 500 500"><g id="freepik--Floor--inject-173"><ellipse cx="250" cy="354.82" rx="223.76" ry="131.83" style="fill:#f5f5f5"></ellipse></g><g id="freepik--Shadows--inject-173"><polygon points="138.93 428.2 299.38 334.87 214.86 285.86 275.1 251.16 415.4 332.57 192.91 460.18 138.93 428.2" style="fill:#e0e0e0"></polygon><ellipse cx="284.92" cy="428.78" rx="30.06" ry="17.35" style="fill:#e0e0e0"></ellipse><ellipse cx="358.38" cy="386.49" rx="30.06" ry="17.35" style="fill:#e0e0e0"></ellipse><ellipse cx="139.75" cy="392.4" rx="45.07" ry="26.02" style="fill:#e0e0e0"></ellipse></g><g id="freepik--Curtain--inject-173"><path d="M125.36,53.63V213.85H141a6.44,6.44,0,0,0,6.44-6.44v-.08a6.44,6.44,0,0,1,6.44-6.44H160a6.44,6.44,0,0,0,6.44-6.44h0a6.43,6.43,0,0,1,6.44-6.43h6.34a6.44,6.44,0,0,0,6.44-6.44V19.25Z" style="fill:#BA68C8"></path><path d="M125.36,53.63V213.85H141a6.44,6.44,0,0,0,6.44-6.44v-.08a6.44,6.44,0,0,1,6.44-6.44H160a6.44,6.44,0,0,0,6.44-6.44h0a6.43,6.43,0,0,1,6.44-6.43h6.34a6.44,6.44,0,0,0,6.44-6.44V19.25Z" style="fill:#fff;opacity:0.6000000000000001"></path><path d="M141,177.93h-5.71V61.87l.22-.13,40.28-23.25V152.1h-2.89a6,6,0,0,0-6,6A6.89,6.89,0,0,1,160,165h-6.15a6,6,0,0,0-6,6A6.91,6.91,0,0,1,141,177.93Zm-4.82-.9H141a6,6,0,0,0,6-6,6.91,6.91,0,0,1,6.89-7H160a6,6,0,0,0,6-6,6.89,6.89,0,0,1,6.89-6.88h2V40L136.14,62.39Z" style="fill:#BA68C8"></path><g style="opacity:0.8"><path d="M141,177.93h-5.71V61.87l.22-.13,40.28-23.25V152.1h-2.89a6,6,0,0,0-6,6A6.89,6.89,0,0,1,160,165h-6.15a6,6,0,0,0-6,6A6.91,6.91,0,0,1,141,177.93Zm-4.82-.9H141a6,6,0,0,0,6-6,6.91,6.91,0,0,1,6.89-7H160a6,6,0,0,0,6-6,6.89,6.89,0,0,1,6.89-6.88h2V40L136.14,62.39Z" style="fill:#fff"></path></g><path d="M56.48,93.28V253.5H72.09a6.44,6.44,0,0,0,6.43-6.44V247A6.43,6.43,0,0,1,85,240.54h6.15a6.44,6.44,0,0,0,6.44-6.44h0a6.44,6.44,0,0,1,6.43-6.44h6.34a6.43,6.43,0,0,0,6.44-6.43V58.9Z" style="fill:#BA68C8"></path><path d="M56.48,93.28V253.5H72.09a6.44,6.44,0,0,0,6.43-6.44V247A6.43,6.43,0,0,1,85,240.54h6.15a6.44,6.44,0,0,0,6.44-6.44h0a6.44,6.44,0,0,1,6.43-6.44h6.34a6.43,6.43,0,0,0,6.44-6.43V58.9Z" style="fill:#fff;opacity:0.6000000000000001"></path><path d="M72.09,217.58H66.37V101.52l.22-.13,40.28-23.26V191.74H104a6,6,0,0,0-6,6,6.89,6.89,0,0,1-6.88,6.89H85a6,6,0,0,0-6,6A6.91,6.91,0,0,1,72.09,217.58Zm-4.82-.9h4.82a6,6,0,0,0,6-6,6.91,6.91,0,0,1,6.89-7h6.15a6,6,0,0,0,6-6,6.89,6.89,0,0,1,6.88-6.88h2V79.69L67.27,102Z" style="fill:#BA68C8"></path><g style="opacity:0.8"><path d="M72.09,217.58H66.37V101.52l.22-.13,40.28-23.26V191.74H104a6,6,0,0,0-6,6,6.89,6.89,0,0,1-6.88,6.89H85a6,6,0,0,0-6,6A6.91,6.91,0,0,1,72.09,217.58Zm-4.82-.9h4.82a6,6,0,0,0,6-6,6.91,6.91,0,0,1,6.89-7h6.15a6,6,0,0,0,6-6,6.89,6.89,0,0,1,6.88-6.88h2V79.69L67.27,102Z" style="fill:#fff"></path></g><path d="M51.76,97.7A1.35,1.35,0,0,1,50.6,97a1.34,1.34,0,0,1,.49-1.82L189.28,15.43a1.34,1.34,0,0,1,1.34,2.31L52.42,97.52A1.24,1.24,0,0,1,51.76,97.7Z" style="fill:#e0e0e0"></path></g><g id="freepik--Character--inject-173"><path d="M122.39,130.84s-4.35-.56-5,3.14.1,6.8,4,6.77Z" style="fill:#BA68C8"></path><path d="M122.39,130.84s-4.35-.56-5,3.14.1,6.8,4,6.77Z" style="opacity:0.2"></path><path d="M120.89,136.47s-3,2.42-3.07,9-4,13.85-4,13.85l4.37-1.26,1.75,4.19a35.13,35.13,0,0,0,3.51-15.44c0-9.15,2.86-8.9,2.86-8.9Z" style="fill:#BA68C8"></path><polygon points="111.99 371.22 111.99 385.54 122.98 385.54 124.12 371.29 111.99 371.22" style="fill:#ffa8a7"></polygon><polygon points="148.44 362.7 148.44 377.02 159.44 377.02 160.57 362.77 148.44 362.7" style="fill:#ffa8a7"></polygon><path d="M133.46,249.45s6.62,49.56,10,58.7c0,0-3.6,5.32-1.87,19.76s5.27,41.1,5.27,41.1a21.9,21.9,0,0,0,16.91-2l-.69-123.78Z" style="fill:#37474f"></path><path d="M155.54,253.31a40.24,40.24,0,0,1-11.14,13.81l-5.5,18.93,2.67-20.73Z" style="fill:#BA68C8"></path><path d="M155.54,253.31a40.24,40.24,0,0,1-11.14,13.81l-5.5,18.93,2.67-20.73Z" style="fill:#263238"></path><path d="M115.69,245.28a280.79,280.79,0,0,0-1.89,31.46c0,16.25,0,28.26,0,28.26a45.71,45.71,0,0,0-3.44,15.58c-.18,8.28-.43,54.58-.43,54.58a16.41,16.41,0,0,0,17.47,0l14.17-109.84S156.18,259.49,157,248Z" style="fill:#37474f"></path><path d="M112,382.89a4.2,4.2,0,0,0,2.05,2.3c.87.35-.41-2.44,2-2.87s7.75-.55,7.75,1.45v2.48a14.37,14.37,0,0,0,1.67,6.74,30,30,0,0,0,3.85,5.92c2.43,2.53,6.09,8.11-.87,10.49s-13.63-2.59-14.06-7.27-1.67-6.29-2.28-7.2a8.45,8.45,0,0,1-2.14-5.54,44.1,44.1,0,0,1,.55-6,2.24,2.24,0,0,1,1.47-1.77h0Z" style="fill:#263238"></path><path d="M128.45,409.4c-6.95,2.38-13.63-2.59-14.06-7.27s-1.67-6.29-2.28-7.2a8.89,8.89,0,0,1-2.09-4.64c0,.12,0,.25,0,.37-.66,3.8,1.43,5.23,2,6.13s1.59,2.39,2,7.07,7.46,9.19,14.41,6.81c3.38-1.15,4.25-3.06,4-5C132.2,407.14,131.09,408.5,128.45,409.4Z" style="fill:#263238"></path><path d="M161.83,373.5l-.36-1.07a1.61,1.61,0,0,0-2-1L154.26,373a1.58,1.58,0,0,0-1.13,1.53v.52a.94.94,0,0,1-.94.93h0a4.71,4.71,0,0,1-3-1.09l-.73-.6v-1.82h0a3.21,3.21,0,0,0-1.45,2.85c.06,1.24.13,2.75.08,3.34-.08,1.09-1.11,5.65.11,7s3.95,1.51,7.33,1.14,7.08,3,10.21,4.19,16.1,3.89,16.07-4.4c0-2.11-2.1-3-4.15-3.72s-9.45-3.36-11.35-4.92a17.4,17.4,0,0,1-2.11-2.09A6.91,6.91,0,0,1,161.83,373.5Z" style="fill:#263238"></path><path d="M164.72,391c-3.13-1.23-6.83-4.55-10.21-4.19s-6.11.21-7.33-1.14a3.21,3.21,0,0,1-.58-1.91,4.71,4.71,0,0,0,.58,3.1c1.22,1.34,3.95,1.5,7.33,1.14s7.08,3,10.21,4.19,16.1,3.89,16.07-4.4a2.08,2.08,0,0,0,0-.36C179.92,394.7,167.74,392.19,164.72,391Z" style="fill:#263238"></path><path d="M194.2,196.51a8.9,8.9,0,0,0,1.11-2.93,9.08,9.08,0,0,1,3-4.74c1-.69,1.29-4.14,2.79-3.52s1.86,2.6.74,4.75-2,3.66-1.39,4.72S196.07,198,194.2,196.51Z" style="fill:#ffa8a7"></path><path d="M200.54,191.36,176.67,210,169,211.81l-6.09,8.54c1.24,5.36,11,11.79,17.28,6.1,5.76-5.23,20.86-23.09,20.86-23.09l-.37-12.07Z" style="fill:#ffa8a7"></path><path d="M209,184.9c2.2-.69,8.11,6,4.53,10.92-4.33,5.94-11.91,7.79-12.95,8l-5-8.34a1.07,1.07,0,0,1,.58-1.57c3.18-1.05,6.87-2.5,8.11-3.94C207,186.85,208,185.21,209,184.9Z" style="fill:#ffa8a7"></path><path d="M149.68,171.23s10-5.21,16.69,11.86,9.75,25.09,9.75,25.09l-14.84,13.11Z" style="fill:#e6e6e6"></path><path d="M161.28,207.88s7.42-6,11.57-7.37l.1,0a4.54,4.54,0,0,1,2.48,2.67l2.13,6-1.06.82s-11.1,8.61-13.09,12.2Z" style="fill:#e0e0e0"></path><path d="M153.25,126.56s10.66,4.3,5,20.83Z" style="fill:#263238"></path><path d="M130.75,157.59v13s8.11,11.2,14.68,11.2V165.17Z" style="fill:#ffa8a7"></path><path d="M129.19,172.9s-11.84.93-13.07,1.14-4,28.59-4,28.59,5.31,18.5,5.31,20.82-1.73,21.83-1.73,21.83A51.78,51.78,0,0,0,150.63,250c10.9-2.42,12.47-6.76,12.47-6.76V214.05c0-14.18-1.11-36.49-12-43.41l-6.67.69-.73,4.06Z" style="fill:#f0f0f0"></path><path d="M154.49,200.26c-1.73-15.7-3-20.45-3-20.65l-.07-.27-11.37-4-.31,1,10.84,3.79c.27,1.19,1.41,6.63,2.9,20.23s3.12,39.78,3.51,46.25c.35-.17.67-.34,1-.51C157.54,239,156,213.69,154.49,200.26Z" style="fill:#e0e0e0"></path><path d="M147.62,188.24a1.66,1.66,0,1,1-1.73-1.58A1.65,1.65,0,0,1,147.62,188.24Z" style="fill:#e0e0e0"></path><path d="M149.27,200.53a1.66,1.66,0,1,1-1.73-1.58A1.65,1.65,0,0,1,149.27,200.53Z" style="fill:#e0e0e0"></path><path d="M150.58,212.47a1.66,1.66,0,1,1-1.73-1.58A1.67,1.67,0,0,1,150.58,212.47Z" style="fill:#e0e0e0"></path><path d="M152.2,225.12a1.66,1.66,0,1,1-1.73-1.58A1.65,1.65,0,0,1,152.2,225.12Z" style="fill:#e0e0e0"></path><path d="M153.65,237.33a1.66,1.66,0,1,1-1.73-1.58A1.65,1.65,0,0,1,153.65,237.33Z" style="fill:#e0e0e0"></path><path d="M133.39,160.06c1.65,4.41,7,7.77,12,9.37v-4l-12.35-6.38A9.86,9.86,0,0,0,133.39,160.06Z" style="fill:#f28f8f"></path><path d="M130.75,164.86s2.14,3.06,9,4l3.84,5a37.63,37.63,0,0,0,.66-5.63h0a1.91,1.91,0,0,0,1.13-1.75v-1h1.86v5.21s-.16,6.62-6.95,6.62a16.83,16.83,0,0,1-11.15-4.41v-7.39a2.88,2.88,0,0,1,1.56-2.21Z" style="fill:#e0e0e0"></path><path d="M143.84,128.65c4.72,0,13.66,2,14.42,12.78s.3,24.28-8.76,25c-6.29.53-17.75-4.07-20.41-11.17S126.72,128.65,143.84,128.65Z" style="fill:#ffa8a7"></path><polygon points="148.69 147.25 148.69 155.03 153.25 153.63 148.69 147.25" style="fill:#f28f8f"></polygon><path d="M142,148.59a1.59,1.59,0,1,0,1.59-1.58A1.59,1.59,0,0,0,142,148.59Z" style="fill:#263238"></path><path d="M152.47,147.49a1.59,1.59,0,1,0,1.58-1.59A1.58,1.58,0,0,0,152.47,147.49Z" style="fill:#263238"></path><path d="M156,144.19l-3.1-1.85s1.19-1.23,2.38-.49A2.17,2.17,0,0,1,156,144.19Z" style="fill:#263238"></path><path d="M142.79,143.65,140,145.93s-.76-1.55.35-2.4A2.15,2.15,0,0,1,142.79,143.65Z" style="fill:#263238"></path><path d="M150.84,158.19a6.78,6.78,0,0,1-4.28-1.15s-.29,2.25,1.6,2.68A2.45,2.45,0,0,0,150.84,158.19Z" style="fill:#f28f8f"></path><path d="M151.89,122.45c2,.5,6.18,1.66,7,4.11.95,2.9-1.31,11.49-11.58,11.49a51.31,51.31,0,0,1-12.54-1.31,1.47,1.47,0,0,0-1.83,1.59c.37,3.06.48,8.48-2.63,11.63l.46,7.63v4.35s-5.18,1.36-9.32-16C121.43,145.93,114.07,112.91,151.89,122.45Z" style="fill:#263238"></path><path d="M131.3,151.71s-1.26-5.61-5.46-5.61-4.12,4.33-3.59,7.21,2.64,5.63,5.43,5.63a3.85,3.85,0,0,0,3.62-2.52Z" style="fill:#ffa8a7"></path><path d="M149.73,178.65a.13.13,0,0,0,0-.25.13.13,0,0,0,0,.25Z" style="fill:#272525"></path><path d="M122.71,173.43a117.06,117.06,0,0,1,4.78,33.86s23.65,2.57,30.82-4.06c0,0,.21-25.53-11-32.19l3.85-.4s9.4,3.49,11.59,28.78c1.55,17.91,6.46,99.9,6.46,99.9s-6.51,15.5-26.64,15.5-24.82-4.52-24.82-4.52l4-80.52h-5.76V225.1a1.84,1.84,0,0,1,2.06-1.84,7.36,7.36,0,0,0,3.88-.49s.88-40.79-4.47-48.85C117.39,173.92,120.17,173.63,122.71,173.43Z" style="fill:#BA68C8"></path><path d="M122.71,173.43a117.06,117.06,0,0,1,4.78,33.86s23.65,2.57,30.82-4.06c0,0,.21-25.53-11-32.19l3.85-.4s9.4,3.49,11.59,28.78c1.55,17.91,6.46,99.9,6.46,99.9s-6.51,15.5-26.64,15.5-24.82-4.52-24.82-4.52l4-80.52h-5.76V225.1a1.84,1.84,0,0,1,2.06-1.84,7.36,7.36,0,0,0,3.88-.49s.88-40.79-4.47-48.85C117.39,173.92,120.17,173.63,122.71,173.43Z" style="opacity:0.4"></path><path d="M146,240.67l-2.73-8.07L124.76,239h0a2.08,2.08,0,0,0-1.37,1.74,6.69,6.69,0,0,0,1.83,5.75,2.18,2.18,0,0,0,1.91.68h0l0,0,.14-.05Z" style="fill:#263238"></path><path d="M145.4,233.24a6.64,6.64,0,0,1,1.82,5.75c-.41,1.88-1.9,2.35-3.32,1a6.67,6.67,0,0,1-1.83-5.75C142.49,232.41,144,231.94,145.4,233.24Z" style="fill:#37474f"></path><path d="M143.68,234.93l1.81,4h0a4.61,4.61,0,0,1,5.15,2.5l1.42,3,1.28-.37a65.58,65.58,0,0,0,32.83-21.71h0Z" style="fill:#e0e0e0"></path><path d="M117.39,173.92a16.61,16.61,0,0,0-12,5.44c-5,5.66-16.12,27.07-16.12,27.07s4.31,7.78,15.14,7.75c0,0,10.58-15,12.93-19.53S122,179.7,117.39,173.92Z" style="fill:#e6e6e6"></path><path d="M86.35,211.78s-10.37,17,3,21.41,35.94,8.13,35.94,8.13.09,6.9,5.4,6.44,10.24-1.38,9.37-4.95l-3.53-1.64s-2.5-2.64-1.54-5.84c0,0,4.16-1.52,4.17-4s-6.85.71-10,0-28.57-9.73-28.57-9.73Z" style="fill:#ffa8a7"></path><path d="M89.32,206.43s7.39,5.83,15.52,7.16l.64-.87h0a2.83,2.83,0,0,1-.06,2.55l-2.91,5.4a2.42,2.42,0,0,1-2.5,1.24c-3.18-.51-10.08-2.1-14.7-6.65a2.51,2.51,0,0,1-.43-2.93L88,206.26a1.91,1.91,0,0,1,1.91-1h0Z" style="fill:#e0e0e0"></path><path d="M122,131.9a54.72,54.72,0,0,0,26.68,5.56c4.86-.31,8.81-3,9.63-6,0,0,1.54,1.5,1.49,5.35,0,0-3.24,5-11.12,5.64-13.87,1.16-27.84-4.56-27.84-4.56A19.46,19.46,0,0,1,122,131.9Z" style="fill:#BA68C8"></path></g><g id="freepik--Frame--inject-173"><path d="M414.53,155.4l-142.06-82V30.7l142.06,82V155.4M416,158v-46.1L271,28.14V74.23L416,158Z" style="fill:#f5f5f5"></path><path d="M281.6,78.65l-9.13-5.27V62.83l3.23,1.86a17.5,17.5,0,0,0,5.9,10.23v3.73m1.49,2.57v-7h0a13.33,13.33,0,0,1-6-10.48h0L271,60.26v14l12.1,7Z" style="fill:#f5f5f5"></path><path d="M414.53,155.4l-9.14-5.28v-3.73c3,1,5.31-.33,5.9-3.41l3.24,1.87V155.4M416,158V144L410,140.5c0,3.86-2.71,5.42-6,3.49v7l12.1,7Z" style="fill:#f5f5f5"></path><path d="M275.7,43.12l-3.23-1.87V30.7L281.6,36v3.73c-3-1-5.31.33-5.9,3.41M277,45.6c0-3.86,2.7-5.42,6-3.49h0v-7l-12.1-7v14L277,45.6Z" style="fill:#f5f5f5"></path><path d="M414.53,123.27l-3.24-1.87a17.45,17.45,0,0,0-5.9-10.22v-3.73l9.14,5.27v10.55m1.48,2.57v-14l-12.1-7v7a13.36,13.36,0,0,1,6,10.47h0l6.05,3.5Z" style="fill:#f5f5f5"></path><polygon points="289.42 38.78 287.94 37.92 287.94 84.02 289.42 84.88 289.42 38.78" style="fill:#f5f5f5"></polygon><polygon points="296.73 43 295.25 42.14 295.25 88.24 296.73 89.1 296.73 43" style="fill:#f5f5f5"></polygon><polygon points="318.66 55.66 317.18 54.8 317.18 100.9 318.66 101.76 318.66 55.66" style="fill:#f5f5f5"></polygon><polygon points="325.97 59.88 324.48 59.02 324.48 105.12 325.97 105.98 325.97 59.88" style="fill:#f5f5f5"></polygon><polygon points="333.27 64.1 331.79 63.24 331.79 109.34 333.27 110.2 333.27 64.1" style="fill:#f5f5f5"></polygon><polygon points="355.2 76.76 353.72 75.9 353.72 122 355.2 122.86 355.2 76.76" style="fill:#f5f5f5"></polygon><polygon points="362.51 80.98 361.03 80.12 361.03 126.22 362.51 127.08 362.51 80.98" style="fill:#f5f5f5"></polygon><polygon points="369.82 85.2 368.34 84.34 368.34 130.44 369.82 131.3 369.82 85.2" style="fill:#f5f5f5"></polygon><polygon points="391.75 97.86 390.26 97 390.26 143.1 391.75 143.96 391.75 97.86" style="fill:#f5f5f5"></polygon><polygon points="399.05 102.08 397.57 101.22 397.57 147.32 399.05 148.18 399.05 102.08" style="fill:#f5f5f5"></polygon><polygon points="415.68 137.08 270.99 53.54 270.99 55.25 415.68 138.79 415.68 137.08" style="fill:#f5f5f5"></polygon><polygon points="415.68 130.65 270.99 47.12 270.99 48.83 415.68 132.37 415.68 130.65" style="fill:#f5f5f5"></polygon><polygon points="416.01 157.96 417.49 157.09 417.49 110.99 416.01 111.86 416.01 157.96" style="fill:#e0e0e0"></polygon><polygon points="416.01 111.86 417.49 110.99 272.47 27.26 270.99 28.14 416.01 111.86" style="fill:#ebebeb"></polygon></g><g id="freepik--Table--inject-173"><polygon points="218.14 152.57 283.55 189.88 283.37 271.71 217.96 234.41 218.14 152.57" style="fill:#BA68C8"></polygon><polygon points="218.14 152.57 283.55 189.88 283.37 271.71 217.96 234.41 218.14 152.57" style="fill:#fff;opacity:0.4"></polygon><path d="M271.91,218.09l-42.29-24.54,0-22.42L272,195.67ZM230.63,193l40.28,23.37,0-20.08-40.27-23.37Z" style="fill:#BA68C8"></path><path d="M271.85,247.36l-42.29-24.54.05-22.42,42.29,24.54Zm-41.28-25.12,40.27,23.37.05-20.08-40.28-23.37Z" style="fill:#BA68C8"></path><g style="opacity:0.2"><path d="M271.91,218.09l-42.29-24.54,0-22.42L272,195.67ZM230.63,193l40.28,23.37,0-20.08-40.27-23.37Z" style="fill:#fff"></path></g><g style="opacity:0.2"><path d="M271.85,247.36l-42.29-24.54.05-22.42,42.29,24.54Zm-41.28-25.12,40.27,23.37.05-20.08-40.28-23.37Z" style="fill:#fff"></path></g><polygon points="160.22 286.41 200.91 310.02 200.6 449.85 159.92 426.24 160.22 286.41" style="fill:#BA68C8"></polygon><polygon points="160.22 286.41 200.91 310.02 200.6 449.85 159.92 426.24 160.22 286.41" style="fill:#fff;opacity:0.4"></polygon><polygon points="407 188.34 200.91 306.73 200.6 449.85 406.69 331.46 407 188.34" style="fill:#BA68C8"></polygon><polygon points="407 188.34 200.91 306.73 200.6 449.85 406.69 331.46 407 188.34" style="fill:#fff;opacity:0.6000000000000001"></polygon><path d="M211.62,433.07a1,1,0,0,1-1-1V303.79a1,1,0,0,1,.51-.87l184.46-106.5a1,1,0,0,1,1,0,1,1,0,0,1,.5.87V325.55a1,1,0,0,1-.5.88L212.13,432.93A1,1,0,0,1,211.62,433.07Zm1-128.69V430.3L395.08,325V199Z" style="fill:#BA68C8"></path><path d="M236.15,418.12a1,1,0,0,1-1-1V406.24c-3,1.34-5.86,1.38-8.12.08s-3.68-3.86-4-7.22l-10.66,6.16a1,1,0,0,1-1.38-.37,1,1,0,0,1,.37-1.38l12.1-7a1,1,0,0,1,1,0,1,1,0,0,1,.51.87v.16c0,3.38,1.09,5.87,3.06,7s4.68.84,7.61-.85a1,1,0,0,1,1.52.88v12.52A1,1,0,0,1,236.15,418.12Z" style="fill:#BA68C8"></path><path d="M371,340.37a1,1,0,0,1-1-1V326.84a1,1,0,0,1,.5-.88c6.45-3.72,11.69-12.8,11.69-20.24v-.15a1,1,0,0,1,.5-.88l12.11-7a1,1,0,1,1,1,1.75l-11.6,6.7c-.2,7.8-5.54,17.11-12.19,21.25v11.95A1,1,0,0,1,371,340.37Z" style="fill:#BA68C8"></path><path d="M211.85,332.18a1,1,0,0,1-.5-1.89l11.6-6.7c.19-7.8,5.54-17.12,12.19-21.25V290.39a1,1,0,1,1,2,0v12.52a1,1,0,0,1-.51.87C230.21,307.5,225,316.58,225,324v.16a1,1,0,0,1-.51.87l-12.1,7A1,1,0,0,1,211.85,332.18Z" style="fill:#BA68C8"></path><path d="M383.2,233.18a1,1,0,0,1-.51-.13,1,1,0,0,1-.5-.88V232c0-3.39-1.09-5.88-3.07-7s-4.68-.84-7.6.85a1,1,0,0,1-1,0,1,1,0,0,1-.5-.87V212.45a1,1,0,0,1,2,0v10.88c3-1.34,5.86-1.38,8.12-.08s3.68,3.85,4,7.21l10.66-6.15a1,1,0,1,1,1,1.75l-12.1,7A1,1,0,0,1,383.2,233.18Z" style="fill:#BA68C8"></path><g style="opacity:0.4"><path d="M211.62,433.07a1,1,0,0,1-1-1V303.79a1,1,0,0,1,.51-.87l184.46-106.5a1,1,0,0,1,1,0,1,1,0,0,1,.5.87V325.55a1,1,0,0,1-.5.88L212.13,432.93A1,1,0,0,1,211.62,433.07Zm1-128.69V430.3L395.08,325V199Z" style="fill:#fff"></path><path d="M236.15,418.12a1,1,0,0,1-1-1V406.24c-3,1.34-5.86,1.38-8.12.08s-3.68-3.86-4-7.22l-10.66,6.16a1,1,0,0,1-1.38-.37,1,1,0,0,1,.37-1.38l12.1-7a1,1,0,0,1,1,0,1,1,0,0,1,.51.87v.16c0,3.38,1.09,5.87,3.06,7s4.68.84,7.61-.85a1,1,0,0,1,1.52.88v12.52A1,1,0,0,1,236.15,418.12Z" style="fill:#fff"></path><path d="M371,340.37a1,1,0,0,1-1-1V326.84a1,1,0,0,1,.5-.88c6.45-3.72,11.69-12.8,11.69-20.24v-.15a1,1,0,0,1,.5-.88l12.11-7a1,1,0,1,1,1,1.75l-11.6,6.7c-.2,7.8-5.54,17.11-12.19,21.25v11.95A1,1,0,0,1,371,340.37Z" style="fill:#fff"></path><path d="M211.85,332.18a1,1,0,0,1-.5-1.89l11.6-6.7c.19-7.8,5.54-17.12,12.19-21.25V290.39a1,1,0,1,1,2,0v12.52a1,1,0,0,1-.51.87C230.21,307.5,225,316.58,225,324v.16a1,1,0,0,1-.51.87l-12.1,7A1,1,0,0,1,211.85,332.18Z" style="fill:#fff"></path><path d="M383.2,233.18a1,1,0,0,1-.51-.13,1,1,0,0,1-.5-.88V232c0-3.39-1.09-5.88-3.07-7s-4.68-.84-7.6.85a1,1,0,0,1-1,0,1,1,0,0,1-.5-.87V212.45a1,1,0,0,1,2,0v10.88c3-1.34,5.86-1.38,8.12-.08s3.68,3.85,4,7.21l10.66-6.15a1,1,0,1,1,1,1.75l-12.1,7A1,1,0,0,1,383.2,233.18Z" style="fill:#fff"></path></g><polygon points="212.39 144.13 212.38 150.17 287.79 193.92 287.8 187.88 212.39 144.13" style="fill:#263238"></polygon><path d="M127.36,281.22C171.24,253.81,242.55,213,287.8,187.88l-75.41-43.75,64.8-37.24,140.3,81.41-227,130.15Z" style="fill:#455a64"></path><polygon points="127.36 281.22 127.34 287.26 190.43 324.49 190.44 318.45 127.36 281.22" style="fill:#263238"></polygon><polygon points="190.43 324.49 190.44 318.45 417.49 188.3 417.48 194.35 190.43 324.49" style="fill:#37474f"></polygon></g><g id="freepik--Chairs--inject-173"><path d="M305.67,364.37c-5.48-3.16-12.67-4.9-20.26-4.9v0h0c-7.59,0-14.78,1.74-20.26,4.9l-.26.16v4.92a20.56,20.56,0,0,1,2.31-1.53c5-2.91,11.62-4.36,18.21-4.36s13.18,1.45,18.21,4.36a21.52,21.52,0,0,1,2.31,1.53v-4.92Z" style="fill:#BA68C8"></path><path d="M305.67,364.37c-5.48-3.16-12.67-4.9-20.26-4.9v0h0c-7.59,0-14.78,1.74-20.26,4.9l-.26.16v4.92a20.56,20.56,0,0,1,2.31-1.53c5-2.91,11.62-4.36,18.21-4.36s13.18,1.45,18.21,4.36a21.52,21.52,0,0,1,2.31,1.53v-4.92Z" style="opacity:0.30000000000000004"></path><path d="M259.65,327.82v97.33c0,3.37,5.24,3.37,5.24,0V327.82c0-3.37-5.24-3.37-5.24,0Z" style="fill:#455a64"></path><path d="M305.93,327.82v97.33c0,3.37,5.23,3.37,5.23,0V327.82c0-3.37-5.23-3.37-5.23,0Z" style="fill:#455a64"></path><path d="M284.92,338.43v99.86c0,3.37,5.23,3.37,5.23,0V338.43c0-3.37-5.23-3.37-5.23,0Z" style="fill:#455a64"></path><path d="M315.56,325.28a2,2,0,0,0,0-.35v-7.06h-2.72a21.41,21.41,0,0,0-6.07-5c-11.74-6.77-30.77-6.77-42.51,0a21.28,21.28,0,0,0-6.07,5h-2.73v7.42h0c.08,4.38,3,8.75,8.8,12.09,11.74,6.77,30.77,6.77,42.51,0,5.78-3.34,8.71-7.71,8.79-12.09h0Z" style="fill:#BA68C8"></path><path d="M315.56,325.28a2,2,0,0,0,0-.35v-7.06h-2.72a21.41,21.41,0,0,0-6.07-5c-11.74-6.77-30.77-6.77-42.51,0a21.28,21.28,0,0,0-6.07,5h-2.73v7.42h0c.08,4.38,3,8.75,8.8,12.09,11.74,6.77,30.77,6.77,42.51,0,5.78-3.34,8.71-7.71,8.79-12.09h0Z" style="opacity:0.5"></path><ellipse cx="285.51" cy="318.06" rx="30.06" ry="17.35" style="fill:#BA68C8"></ellipse><ellipse cx="285.51" cy="318.06" rx="30.06" ry="17.35" style="opacity:0.30000000000000004"></ellipse><ellipse cx="285.51" cy="314.13" rx="26.07" ry="16.67" style="fill:#BA68C8"></ellipse><path d="M311.16,368.67v9.17c0,.06,0,.11,0,.17.19,3.95-2.32,7.92-7.53,10.93-5,2.91-11.62,4.36-18.21,4.36s-13.18-1.45-18.21-4.36c-5.22-3-7.72-7-7.53-10.93,0-.06,0-.11,0-.17v-9.17a14.26,14.26,0,0,0-4.09,9.76c0,5.5,3.41,10.49,9.59,14.06,5.48,3.16,12.67,4.9,20.26,4.9s14.78-1.74,20.26-4.9c6.18-3.57,9.59-8.56,9.59-14.06A14.23,14.23,0,0,0,311.16,368.67Z" style="fill:#BA68C8"></path><g style="opacity:0.30000000000000004"><path d="M311.16,368.67v9.17c0,.06,0,.11,0,.17.19,3.95-2.32,7.92-7.53,10.93-5,2.91-11.62,4.36-18.21,4.36s-13.18-1.45-18.21-4.36c-5.22-3-7.72-7-7.53-10.93,0-.06,0-.11,0-.17v-9.17a14.26,14.26,0,0,0-4.09,9.76c0,5.5,3.41,10.49,9.59,14.06,5.48,3.16,12.67,4.9,20.26,4.9s14.78-1.74,20.26-4.9c6.18-3.57,9.59-8.56,9.59-14.06A14.23,14.23,0,0,0,311.16,368.67Z"></path></g><path d="M378.53,324.25c-5.47-3.16-12.67-4.9-20.25-4.9v0h0c-7.58,0-14.78,1.74-20.25,4.9l-.27.16v4.92a24.38,24.38,0,0,1,2.31-1.54c5-2.9,11.62-4.35,18.21-4.35s13.19,1.45,18.22,4.35a24.38,24.38,0,0,1,2.31,1.54v-4.92Z" style="fill:#BA68C8"></path><path d="M378.53,324.25c-5.47-3.16-12.67-4.9-20.25-4.9v0h0c-7.58,0-14.78,1.74-20.25,4.9l-.27.16v4.92a24.38,24.38,0,0,1,2.31-1.54c5-2.9,11.62-4.35,18.21-4.35s13.19,1.45,18.22,4.35a24.38,24.38,0,0,1,2.31,1.54v-4.92Z" style="opacity:0.30000000000000004"></path><path d="M332.52,287.7V385c0,3.37,5.23,3.37,5.23,0V287.7c0-3.37-5.23-3.37-5.23,0Z" style="fill:#455a64"></path><path d="M378.8,287.7V385c0,3.37,5.23,3.37,5.23,0V287.7c0-3.37-5.23-3.37-5.23,0Z" style="fill:#455a64"></path><path d="M357.78,298.31v99.86c0,3.37,5.24,3.37,5.24,0V298.31c0-3.37-5.24-3.37-5.24,0Z" style="fill:#455a64"></path><path d="M388.43,285.16v-7.41h-2.72a21.33,21.33,0,0,0-6.08-5c-11.73-6.77-30.77-6.77-42.51,0a21.41,21.41,0,0,0-6.07,5h-2.73v7.42h0c.08,4.38,3,8.75,8.79,12.09,11.74,6.77,30.78,6.77,42.51,0,5.79-3.34,8.72-7.71,8.8-12.09h0Z" style="fill:#BA68C8"></path><path d="M388.43,285.16v-7.41h-2.72a21.33,21.33,0,0,0-6.08-5c-11.73-6.77-30.77-6.77-42.51,0a21.41,21.41,0,0,0-6.07,5h-2.73v7.42h0c.08,4.38,3,8.75,8.79,12.09,11.74,6.77,30.78,6.77,42.51,0,5.79-3.34,8.72-7.71,8.8-12.09h0Z" style="opacity:0.5"></path><ellipse cx="358.38" cy="277.94" rx="30.06" ry="17.35" style="fill:#BA68C8"></ellipse><ellipse cx="358.38" cy="277.94" rx="30.06" ry="17.35" style="opacity:0.30000000000000004"></ellipse><ellipse cx="358.38" cy="274.01" rx="26.07" ry="16.67" style="fill:#BA68C8"></ellipse><path d="M384,328.55v9.17a1,1,0,0,1,0,.17c.19,3.95-2.31,7.92-7.52,10.93-5,2.91-11.62,4.36-18.21,4.36s-13.19-1.45-18.22-4.36c-5.21-3-7.71-7-7.52-10.93a1,1,0,0,1,0-.17v-9.17a14.22,14.22,0,0,0-4.09,9.76c0,5.5,3.4,10.49,9.59,14.06,5.47,3.16,12.67,4.9,20.26,4.9s14.78-1.74,20.25-4.9c6.19-3.57,9.59-8.56,9.59-14.06A14.22,14.22,0,0,0,384,328.55Z" style="fill:#BA68C8"></path><g style="opacity:0.30000000000000004"><path d="M384,328.55v9.17a1,1,0,0,1,0,.17c.19,3.95-2.31,7.92-7.52,10.93-5,2.91-11.62,4.36-18.21,4.36s-13.19-1.45-18.22-4.36c-5.21-3-7.71-7-7.52-10.93a1,1,0,0,1,0-.17v-9.17a14.22,14.22,0,0,0-4.09,9.76c0,5.5,3.4,10.49,9.59,14.06,5.47,3.16,12.67,4.9,20.26,4.9s14.78-1.74,20.25-4.9c6.19-3.57,9.59-8.56,9.59-14.06A14.22,14.22,0,0,0,384,328.55Z"></path></g></g><g id="freepik--Plates--inject-173"><path d="M248,130.48s.05,0,.07,0l22-12.7a2.34,2.34,0,0,1,2.33,0l14.75,8.56,0,0h.57v1h0a1.13,1.13,0,0,1-.58,1l-22,12.7a2.34,2.34,0,0,1-2.33,0l-14.75-8.56a1.15,1.15,0,0,1-.58-1h0v-1Z" style="fill:#e0e0e0"></path><path d="M272.42,116.79l14.76,8.57a1.16,1.16,0,0,1,0,2l-22,12.69a2.32,2.32,0,0,1-2.32,0l-14.76-8.57a1.16,1.16,0,0,1,0-2l22-12.69A2.34,2.34,0,0,1,272.42,116.79Z" style="fill:#fafafa"></path><path d="M270.1,119.08l-7.32,4.21a.57.57,0,0,0,0,1l11.91,6.92a1.15,1.15,0,0,0,1.16,0l7.32-4.21a.57.57,0,0,0,0-1l-11.92-6.92A1.15,1.15,0,0,0,270.1,119.08Z" style="fill:#f5f5f5"></path><path d="M281.87,127.74l-10.62-6.16a1.13,1.13,0,0,0-1.15,0l-6,3.46-1.3-.76a.57.57,0,0,1,0-1l7.32-4.21a1.15,1.15,0,0,1,1.16,0L283.18,126a.57.57,0,0,1,0,1Z" style="fill:#ebebeb"></path><path d="M258.88,125.81,251.55,130a.58.58,0,0,0,0,1l11.92,6.92a1.18,1.18,0,0,0,1.15,0l7.33-4.21a.58.58,0,0,0,0-1L260,125.82A1.15,1.15,0,0,0,258.88,125.81Z" style="fill:#f5f5f5"></path><path d="M270.64,134.48,260,128.32a1.15,1.15,0,0,0-1.16,0l-6,3.46-1.3-.76a.58.58,0,0,1,0-1l7.33-4.21a1.15,1.15,0,0,1,1.15,0L272,132.73a.58.58,0,0,1,0,1Z" style="fill:#ebebeb"></path><path d="M248,127.43a.18.18,0,0,1,.07-.05l22-12.7a2.34,2.34,0,0,1,2.33,0l14.75,8.56h.58v1h0a1.15,1.15,0,0,1-.58,1l-22,12.7a2.34,2.34,0,0,1-2.33,0l-14.75-8.56a1.15,1.15,0,0,1-.58-1h0v-1Z" style="fill:#e0e0e0"></path><path d="M272.43,113.74l14.75,8.56a1.17,1.17,0,0,1,0,2l-22,12.69a2.34,2.34,0,0,1-2.33,0l-14.75-8.56a1.16,1.16,0,0,1,0-2l22-12.69A2.34,2.34,0,0,1,272.43,113.74Z" style="fill:#fafafa"></path><path d="M270.11,116l-7.33,4.2a.58.58,0,0,0,0,1l11.92,6.92a1.15,1.15,0,0,0,1.15,0l7.33-4.21a.57.57,0,0,0,0-1L271.26,116A1.13,1.13,0,0,0,270.11,116Z" style="fill:#f5f5f5"></path><path d="M281.88,124.69l-10.62-6.16a1.13,1.13,0,0,0-1.15,0l-6,3.46-1.3-.76a.58.58,0,0,1,0-1l7.33-4.2a1.13,1.13,0,0,1,1.15,0l11.92,6.91a.57.57,0,0,1,0,1Z" style="fill:#ebebeb"></path><path d="M258.89,122.76,251.56,127a.57.57,0,0,0,0,1l11.91,6.91a1.17,1.17,0,0,0,1.16,0l7.32-4.21a.58.58,0,0,0,0-1L260,122.76A1.18,1.18,0,0,0,258.89,122.76Z" style="fill:#f5f5f5"></path><path d="M270.65,131.43,260,125.27a1.15,1.15,0,0,0-1.15,0l-6,3.46-1.3-.75a.57.57,0,0,1,0-1l7.33-4.21a1.18,1.18,0,0,1,1.15,0L272,129.68a.58.58,0,0,1,0,1Z" style="fill:#ebebeb"></path><path d="M248,124.38l.08-.06,22-12.69a2.34,2.34,0,0,1,2.33,0l14.76,8.56h.58v1h0a1.11,1.11,0,0,1-.58,1l-22,12.69a2.31,2.31,0,0,1-2.33,0l-14.76-8.56a1.12,1.12,0,0,1-.57-1h0v-1Z" style="fill:#e0e0e0"></path><path d="M272.43,110.69l14.76,8.56a1.17,1.17,0,0,1,0,2l-22,12.69a2.34,2.34,0,0,1-2.33,0l-14.76-8.56a1.16,1.16,0,0,1,0-2l22-12.69A2.29,2.29,0,0,1,272.43,110.69Z" style="fill:#fafafa"></path><path d="M270.12,113l-7.33,4.21a.58.58,0,0,0,0,1l11.92,6.92a1.18,1.18,0,0,0,1.15,0l7.33-4.21a.58.58,0,0,0,0-1L271.27,113A1.15,1.15,0,0,0,270.12,113Z" style="fill:#f5f5f5"></path><path d="M281.88,121.64l-10.61-6.16a1.15,1.15,0,0,0-1.16,0l-6,3.46-1.3-.76a.58.58,0,0,1,0-1l7.33-4.21a1.15,1.15,0,0,1,1.15,0l11.92,6.91a.58.58,0,0,1,0,1Z" style="fill:#ebebeb"></path><path d="M258.89,119.71l-7.33,4.21a.58.58,0,0,0,0,1l11.92,6.91a1.15,1.15,0,0,0,1.15,0l7.33-4.21a.57.57,0,0,0,0-1l-11.91-6.92A1.2,1.2,0,0,0,258.89,119.71Z" style="fill:#f5f5f5"></path><path d="M270.66,128.38,260,122.22a1.15,1.15,0,0,0-1.15,0l-6,3.46-1.3-.75a.58.58,0,0,1,0-1l7.33-4.21a1.2,1.2,0,0,1,1.16,0L272,126.63a.57.57,0,0,1,0,1Z" style="fill:#ebebeb"></path><path d="M248,121.33l.07-.06,22-12.69a2.36,2.36,0,0,1,2.33,0l14.75,8.57h.59v1h0a1.14,1.14,0,0,1-.58,1l-22,12.69a2.34,2.34,0,0,1-2.33,0l-14.75-8.56a1.16,1.16,0,0,1-.58-1h0v-1Z" style="fill:#e0e0e0"></path><path d="M272.44,107.64l14.76,8.56a1.16,1.16,0,0,1,0,2l-22,12.7a2.32,2.32,0,0,1-2.32,0l-14.76-8.56a1.16,1.16,0,0,1,0-2l22-12.7A2.34,2.34,0,0,1,272.44,107.64Z" style="fill:#fafafa"></path><path d="M270.12,109.92l-7.32,4.21a.57.57,0,0,0,0,1L274.71,122a1.17,1.17,0,0,0,1.16,0l7.32-4.21a.58.58,0,0,0,0-1l-11.92-6.91A1.17,1.17,0,0,0,270.12,109.92Z" style="fill:#f5f5f5"></path><path d="M281.89,118.59l-10.62-6.16a1.15,1.15,0,0,0-1.15,0l-6,3.46-1.3-.75a.57.57,0,0,1,0-1l7.32-4.21a1.17,1.17,0,0,1,1.16,0l11.92,6.91a.58.58,0,0,1,0,1Z" style="fill:#ebebeb"></path><path d="M258.9,116.66l-7.33,4.21a.58.58,0,0,0,0,1l11.92,6.91a1.13,1.13,0,0,0,1.15,0l7.33-4.21a.57.57,0,0,0,0-1l-11.92-6.92A1.13,1.13,0,0,0,258.9,116.66Z" style="fill:#f5f5f5"></path><path d="M270.66,125.32l-10.61-6.16a1.2,1.2,0,0,0-1.16,0l-6,3.46-1.3-.75a.58.58,0,0,1,0-1l7.33-4.21a1.13,1.13,0,0,1,1.15,0L272,123.58a.57.57,0,0,1,0,1Z" style="fill:#ebebeb"></path><path d="M248,118.28l.07-.06,22-12.69a2.34,2.34,0,0,1,2.33,0l14.75,8.56s0,0,0,0h.56v1h0a1.17,1.17,0,0,1-.58,1l-22,12.69a2.36,2.36,0,0,1-2.33,0l-14.75-8.57a1.15,1.15,0,0,1-.58-1h0v-1Z" style="fill:#e0e0e0"></path><path d="M272.45,104.59l14.75,8.56a1.16,1.16,0,0,1,0,2l-22,12.7a2.34,2.34,0,0,1-2.33,0l-14.75-8.56a1.16,1.16,0,0,1,0-2l22-12.7A2.34,2.34,0,0,1,272.45,104.59Z" style="fill:#fafafa"></path><path d="M270.13,106.87l-7.33,4.21a.58.58,0,0,0,0,1L274.72,119a1.15,1.15,0,0,0,1.15,0l7.33-4.21a.57.57,0,0,0,0-1l-11.92-6.92A1.18,1.18,0,0,0,270.13,106.87Z" style="fill:#f5f5f5"></path><path d="M281.9,115.54l-10.62-6.16a1.15,1.15,0,0,0-1.15,0l-6,3.46-1.3-.75a.58.58,0,0,1,0-1l7.33-4.21a1.18,1.18,0,0,1,1.15,0l11.92,6.92a.57.57,0,0,1,0,1Z" style="fill:#ebebeb"></path><path d="M258.91,113.61l-7.33,4.21a.57.57,0,0,0,0,1l11.91,6.92a1.15,1.15,0,0,0,1.16,0l7.32-4.21a.57.57,0,0,0,0-1l-11.92-6.92A1.13,1.13,0,0,0,258.91,113.61Z" style="fill:#f5f5f5"></path><path d="M270.67,122.27l-10.62-6.16a1.15,1.15,0,0,0-1.15,0l-6,3.46-1.3-.76a.57.57,0,0,1,0-1l7.33-4.21a1.13,1.13,0,0,1,1.15,0L272,120.53a.57.57,0,0,1,0,1Z" style="fill:#ebebeb"></path><path d="M248,115.23l.08-.06,22-12.69a2.31,2.31,0,0,1,2.33,0L287.21,111l0,0h.56v1h0a1.13,1.13,0,0,1-.58,1l-22,12.69a2.34,2.34,0,0,1-2.33,0l-14.76-8.56a1.12,1.12,0,0,1-.57-1h0v-1Z" style="fill:#e0e0e0"></path><path d="M272.45,101.54l14.76,8.56a1.16,1.16,0,0,1,0,2l-22,12.69a2.31,2.31,0,0,1-2.33,0l-14.76-8.56a1.17,1.17,0,0,1,0-2l22-12.69A2.32,2.32,0,0,1,272.45,101.54Z" style="fill:#fafafa"></path><path d="M270.14,103.82,262.81,108a.58.58,0,0,0,0,1l11.92,6.91a1.13,1.13,0,0,0,1.15,0l7.33-4.2a.58.58,0,0,0,0-1l-11.92-6.92A1.15,1.15,0,0,0,270.14,103.82Z" style="fill:#f0f0f0"></path><path d="M281.9,112.48l-10.61-6.16a1.2,1.2,0,0,0-1.16,0l-6,3.46-1.3-.75a.58.58,0,0,1,0-1l7.33-4.21a1.15,1.15,0,0,1,1.15,0l11.92,6.92a.57.57,0,0,1,0,1Z" style="fill:#e6e6e6"></path><path d="M258.91,110.56l-7.33,4.21a.57.57,0,0,0,0,1l11.92,6.92a1.13,1.13,0,0,0,1.15,0l7.33-4.21a.57.57,0,0,0,0-1l-11.91-6.91A1.15,1.15,0,0,0,258.91,110.56Z" style="fill:#f0f0f0"></path><path d="M270.68,119.22l-10.62-6.16a1.13,1.13,0,0,0-1.15,0l-6,3.46-1.3-.76a.57.57,0,0,1,0-1l7.33-4.21a1.15,1.15,0,0,1,1.16,0L272,117.47a.57.57,0,0,1,0,1Z" style="fill:#e6e6e6"></path><ellipse cx="300.33" cy="147.28" rx="16.48" ry="28.55" transform="translate(152.4 447.29) rotate(-89.87)" style="fill:#e0e0e0"></ellipse><ellipse cx="300.33" cy="146.23" rx="16.48" ry="28.55" transform="translate(153.45 446.24) rotate(-89.88)" style="fill:#fafafa"></ellipse><ellipse cx="300.34" cy="145.63" rx="12.25" ry="21.21" transform="translate(154.06 445.64) rotate(-89.88)" style="fill:#f0f0f0"></ellipse><path d="M285.35,137.53c8.3-4.76,21.73-4.73,30,.07,4,2.32,6,5.34,6.17,8.37.15-3.23-1.9-6.49-6.17-9-8.27-4.8-21.7-4.83-30-.07-4.28,2.46-6.34,5.72-6.21,8.95C279.28,142.85,281.34,139.84,285.35,137.53Z" style="fill:#e6e6e6"></path><ellipse cx="300.34" cy="143.76" rx="16.48" ry="28.55" transform="translate(155.93 443.78) rotate(-89.88)" style="fill:#e0e0e0"></ellipse><ellipse cx="300.34" cy="142.71" rx="16.48" ry="28.55" transform="translate(156.98 442.74) rotate(-89.88)" style="fill:#fafafa"></ellipse><path d="M315.32,150.8c-8.29,4.76-21.72,4.73-30-.07s-8.26-12.55,0-17.32,21.73-4.73,30,.07S323.62,146,315.32,150.8Z" style="fill:#f0f0f0"></path><path d="M285.36,134c8.3-4.77,21.73-4.74,30,.06,4,2.32,6.05,5.34,6.17,8.37.14-3.23-1.9-6.49-6.17-9-8.27-4.8-21.7-4.83-30-.07-4.28,2.46-6.33,5.72-6.2,9C279.29,139.33,281.35,136.32,285.36,134Z" style="fill:#e6e6e6"></path><ellipse cx="300.35" cy="140.24" rx="16.48" ry="28.55" transform="translate(159.46 440.28) rotate(-89.87)" style="fill:#e0e0e0"></ellipse><ellipse cx="300.35" cy="139.19" rx="16.48" ry="28.55" transform="translate(160.51 439.23) rotate(-89.88)" style="fill:#fafafa"></ellipse><path d="M315.33,147.28c-8.29,4.76-21.72,4.73-30-.07s-8.25-12.55,0-17.32,21.73-4.73,30,.07S323.63,142.51,315.33,147.28Z" style="fill:#f0f0f0"></path><path d="M285.37,130.5c8.29-4.77,21.72-4.74,30,.06,4,2.32,6.05,5.34,6.17,8.37.14-3.23-1.9-6.49-6.17-9-8.27-4.8-21.7-4.83-30-.07-4.28,2.46-6.34,5.72-6.21,9C279.3,135.81,281.36,132.8,285.37,130.5Z" style="fill:#e6e6e6"></path><ellipse cx="300.36" cy="136.72" rx="16.48" ry="28.55" transform="translate(162.98 436.77) rotate(-89.88)" style="fill:#e0e0e0"></ellipse><ellipse cx="300.36" cy="135.67" rx="16.48" ry="28.55" transform="translate(164.04 435.73) rotate(-89.87)" style="fill:#fafafa"></ellipse><path d="M315.34,143.76c-8.29,4.76-21.73,4.73-30-.07s-8.25-12.55,0-17.32,21.72-4.73,30,.07S323.63,139,315.34,143.76Z" style="fill:#f0f0f0"></path><path d="M285.38,127c8.29-4.76,21.72-4.73,30,.07,4,2.32,6,5.34,6.17,8.37.14-3.23-1.9-6.49-6.17-9-8.28-4.8-21.71-4.83-30-.07-4.28,2.46-6.34,5.72-6.21,8.95C279.31,132.29,281.36,129.28,285.38,127Z" style="fill:#e6e6e6"></path><ellipse cx="300.36" cy="133.2" rx="16.48" ry="28.55" transform="translate(166.51 433.27) rotate(-89.88)" style="fill:#e0e0e0"></ellipse><ellipse cx="300.37" cy="132.15" rx="16.48" ry="28.55" transform="translate(167.56 432.22) rotate(-89.88)" style="fill:#fafafa"></ellipse><ellipse cx="300.37" cy="131.55" rx="12.25" ry="21.21" transform="translate(168.17 431.62) rotate(-89.87)" style="fill:#f0f0f0"></ellipse><path d="M285.39,123.46c8.29-4.77,21.72-4.74,30,.06,4,2.32,6.05,5.34,6.17,8.37.15-3.23-1.9-6.49-6.17-9-8.27-4.8-21.7-4.83-30-.07-4.28,2.46-6.34,5.72-6.21,9C279.31,128.77,281.37,125.76,285.39,123.46Z" style="fill:#e6e6e6"></path></g><g id="freepik--Chopsticks--inject-173"><polygon points="262.64 220.56 262.63 222.62 254.62 217.96 254.62 215.91 262.64 220.56" style="fill:#BA68C8"></polygon><polygon points="262.64 220.56 262.63 222.62 254.62 217.96 254.62 215.91 262.64 220.56" style="opacity:0.2"></polygon><polygon points="280.28 212.48 262.63 222.62 262.64 220.56 280.29 210.42 280.28 212.48" style="fill:#BA68C8"></polygon><polygon points="280.29 210.42 262.64 220.56 254.62 215.91 272.27 205.77 280.29 210.42" style="fill:#BA68C8"></polygon><polygon points="280.29 210.42 262.64 220.56 254.62 215.91 272.27 205.77 280.29 210.42" style="fill:#fff;opacity:0.2"></polygon><polygon points="314.86 236.37 312.8 237.55 312.81 235.19 314.86 234.01 314.86 236.37" style="fill:#703838"></polygon><polygon points="314.86 234.01 312.81 235.19 269.66 210.52 270.48 210.05 314.86 234.01" style="fill:#945959"></polygon><polygon points="312.81 235.19 312.8 237.55 269.66 211.47 269.66 210.52 312.81 235.19" style="fill:#703838"></polygon><polygon points="308.7 239.91 306.65 241.09 306.65 238.72 308.71 237.54 308.7 239.91" style="fill:#703838"></polygon><polygon points="308.71 237.54 306.65 238.72 263.5 214.06 264.32 213.59 308.71 237.54" style="fill:#945959"></polygon><polygon points="306.65 238.72 306.65 241.09 263.5 215.01 263.5 214.06 306.65 238.72" style="fill:#703838"></polygon><polygon points="280.77 164.66 278.72 165.84 278.73 163.47 280.78 162.29 280.77 164.66" style="fill:#e6e6e6"></polygon><polygon points="280.78 162.29 278.73 163.47 235.58 138.81 236.4 138.34 280.78 162.29" style="fill:#fafafa"></polygon><polygon points="278.73 163.47 278.72 165.84 235.57 139.76 235.58 138.81 278.73 163.47" style="fill:#e0e0e0"></polygon><polygon points="276.67 167.58 274.62 168.75 274.62 166.39 276.67 165.21 276.67 167.58" style="fill:#e6e6e6"></polygon><polygon points="276.67 165.21 274.62 166.39 231.47 141.73 232.29 141.26 276.67 165.21" style="fill:#fafafa"></polygon><polygon points="274.62 166.39 274.62 168.75 231.47 142.68 231.47 141.73 274.62 166.39" style="fill:#e0e0e0"></polygon><polygon points="280.78 161.8 278.73 162.98 278.73 160.61 280.79 159.43 280.78 161.8" style="fill:#e6e6e6"></polygon><polygon points="280.79 159.43 278.73 160.61 235.58 135.95 236.4 135.48 280.79 159.43" style="fill:#fafafa"></polygon><polygon points="278.73 160.61 278.73 162.98 235.58 136.9 235.58 135.95 278.73 160.61" style="fill:#e0e0e0"></polygon><polygon points="276.68 164.72 274.62 165.9 274.63 163.53 276.68 162.35 276.68 164.72" style="fill:#e6e6e6"></polygon><polygon points="276.68 162.35 274.63 163.53 231.48 138.87 232.3 138.4 276.68 162.35" style="fill:#fafafa"></polygon><polygon points="274.63 163.53 274.62 165.9 231.47 139.82 231.48 138.87 274.63 163.53" style="fill:#e0e0e0"></polygon></g><g id="freepik--Sushi--inject-173"><path d="M281.93,248l-71.56,41.29c-2.13,1.23-5.84,1.08-8.3-.34l-35.4-20.44c-2.45-1.42-2.72-3.56-.59-4.79l71.56-41.29c2.12-1.23,5.84-1.08,8.29.34l35.4,20.44C283.79,244.67,284.05,246.81,281.93,248Z" style="fill:#945959"></path><path d="M281.93,248l-71.56,41.29c-2.13,1.23-5.84,1.08-8.3-.34l-35.4-20.44a3.38,3.38,0,0,1-2-2.72h0v5.64h0c0,1,.65,2,2,2.79l35.4,20.44c2.46,1.41,6.17,1.57,8.3.34l71.56-41.3a2.55,2.55,0,0,0,1.41-1.83h0v-5.83A2.52,2.52,0,0,1,281.93,248Z" style="fill:#703838"></path><path d="M263.21,239.83c0-6.38-4.48-14.14-10-17.33-3.18-1.84-5.49-1.72-7.89-.2h0l-39.63,23,14.12,24.52,40.7-23.66,0,0C262.17,245.07,263.21,242.89,263.21,239.83Z" style="fill:#37474f"></path><ellipse cx="212.74" cy="257.59" rx="7.64" ry="13.71" transform="translate(-100.29 140.88) rotate(-30)" style="fill:#ebebeb"></ellipse><path d="M208.25,245.7h0a8.08,8.08,0,0,1,4,1.23c5.24,3,9.5,10.4,9.5,16.45,0,3.84-1.69,6.13-4.53,6.13a8.25,8.25,0,0,1-4-1.23c-5.24-3-9.5-10.41-9.5-16.45,0-3.84,1.69-6.13,4.53-6.13m0-1c-3.28,0-5.54,2.62-5.54,7.15,0,6.38,4.48,14.13,10,17.32a9,9,0,0,0,4.46,1.37c3.29,0,5.54-2.62,5.54-7.14,0-6.38-4.48-14.14-10-17.33a9.08,9.08,0,0,0-4.47-1.37Z" style="fill:#263238"></path><path d="M215.41,263.68l-5.34-3.09a3,3,0,0,1-1.27-2.42v-5.72c0-.93.57-1.36,1.27-1l5.34,3.09a3,3,0,0,1,1.27,2.42v5.72C216.68,263.66,216.11,264.09,215.41,263.68Z" style="fill:#BA68C8"></path><path d="M210.07,260.59l5.34,3.09c.7.41,1.27,0,1.27-1V257a3.22,3.22,0,0,0-.3-1.26l-7.12,4A2.33,2.33,0,0,0,210.07,260.59Z" style="opacity:0.30000000000000004"></path><path d="M214.45,268.18c0-6.38-4.48-14.14-10-17.33-3.18-1.83-5.4-1.62-7.89-.2h0l-5.45,3.1,14.12,24.52,6.52-3.73,0,0C213.41,273.42,214.45,271.24,214.45,268.18Z" style="fill:#455a64"></path><ellipse cx="198.16" cy="266.01" rx="7.64" ry="13.71" transform="translate(-106.46 134.72) rotate(-30)" style="fill:#ebebeb"></ellipse><path d="M193.66,254.12h0a8.15,8.15,0,0,1,4,1.23c5.23,3,9.49,10.4,9.49,16.45,0,3.84-1.69,6.13-4.52,6.13a8.08,8.08,0,0,1-4-1.23c-5.24-3-9.5-10.4-9.5-16.45,0-3.84,1.69-6.13,4.52-6.13m0-1c-3.28,0-5.53,2.61-5.53,7.14,0,6.38,4.48,14.14,10,17.33a9.14,9.14,0,0,0,4.47,1.36c3.28,0,5.54-2.61,5.54-7.14,0-6.38-4.48-14.14-10-17.33a9.11,9.11,0,0,0-4.47-1.36Z" style="fill:#263238"></path><path d="M200.83,272.1,195.48,269a3,3,0,0,1-1.26-2.42v-5.72c0-.94.56-1.37,1.26-1l5.35,3.08a3,3,0,0,1,1.27,2.42v5.73C202.1,272.08,201.53,272.51,200.83,272.1Z" style="fill:#BA68C8"></path><path d="M195.48,269l5.35,3.08c.7.41,1.27,0,1.27-1v-5.73a3,3,0,0,0-.31-1.25l-7.12,4A2.44,2.44,0,0,0,195.48,269Z" style="opacity:0.30000000000000004"></path><polygon points="331.65 218.49 339.48 223.01 339.48 209.37 331.65 204.85 331.65 218.49" style="fill:#703838"></polygon><polygon points="370 196.62 377.83 201.14 377.83 187.5 370 182.98 370 196.62" style="fill:#703838"></polygon><polygon points="402.04 173.11 393.73 183.53 324.62 223.43 313.53 224.22 313.53 220.66 402.04 169.56 402.04 173.11" style="fill:#703838"></polygon><polygon points="402.04 169.56 313.53 220.66 264 192.07 352.51 140.96 402.04 169.56" style="fill:#945959"></polygon><polygon points="264 192.07 264 195.62 313.53 224.22 313.53 220.66 264 192.07" style="fill:#703838"></polygon><polygon points="347.32 218.49 339.48 223.01 339.48 209.37 347.32 204.85 347.32 218.49" style="fill:#945959"></polygon><polygon points="385.67 196.62 377.83 201.14 377.83 187.5 385.67 182.98 385.67 196.62" style="fill:#945959"></polygon><path d="M348,131l-.1-.06h0a1.17,1.17,0,0,0-1.21.09l-10.91,6.3a4.38,4.38,0,0,0-1.84,3.51v12a1.63,1.63,0,0,0,.6,1.45h0l10.32,5.94,13.32-23.32Z" style="fill:#37474f"></path><path d="M345,144.72,334.4,139a4.36,4.36,0,0,0-.43,1.8v12a1.63,1.63,0,0,0,.6,1.45h0l10.32,5.94.15-.27Z" style="fill:#263238"></path><path d="M356.78,153.56l-10.54,6.08c-1,.57-1.77,0-1.77-1.34V146.77a4.25,4.25,0,0,1,1.77-3.38l10.54-6.09c1-.56,1.77,0,1.77,1.34v11.53A4.23,4.23,0,0,1,356.78,153.56Z" style="fill:#f5f5f5"></path><path d="M354,150.89l-4.94,2.85c-.46.26-.83,0-.83-.63v-5.4a2,2,0,0,1,.83-1.59l4.94-2.85c.45-.26.83,0,.83.63v5.4A2,2,0,0,1,354,150.89Z" style="fill:#BA68C8"></path><path d="M354,150.89l-4.94,2.85c-.46.26-.83,0-.83-.63v-5.4a2,2,0,0,1,.83-1.59l4.94-2.85c.45-.26.83,0,.83.63v5.4A2,2,0,0,1,354,150.89Z" style="fill:#fff;opacity:0.5"></path><path d="M351.53,145v3.55l3-1.65v-2.77a.46.46,0,0,0-.68-.41Z" style="fill:#BA68C8"></path><polygon points="351.53 148.5 351.53 151.86 348.61 153.58 348.61 150.1 351.53 148.5" style="fill:#BA68C8"></polygon><path d="M354.28,143.72a.68.68,0,0,1,0,.18v5.4a1.46,1.46,0,0,1-.57,1.13l-4.93,2.85h0a.74.74,0,0,1,0-.18v-5.4a1.46,1.46,0,0,1,.57-1.13l4.93-2.85h0m.05-.55a.6.6,0,0,0-.33.1l-4.94,2.85a2,2,0,0,0-.83,1.59v5.4c0,.45.21.73.5.73a.77.77,0,0,0,.33-.1l4.94-2.85a2,2,0,0,0,.83-1.59v-5.4c0-.46-.21-.73-.5-.73Z" style="fill:#455a64"></path><path d="M357.67,137.77a1.24,1.24,0,0,1,.1.55v12a3.37,3.37,0,0,1-1.31,2.59l-10.92,6.31-.15.07a1.24,1.24,0,0,1-.1-.55V146.74a3.41,3.41,0,0,1,1.31-2.6l10.92-6.3.15-.07m.05-1.06a1.45,1.45,0,0,0-.73.22l-10.92,6.3a4.43,4.43,0,0,0-1.84,3.51v11.95c0,1,.46,1.61,1.11,1.61a1.48,1.48,0,0,0,.73-.22l10.92-6.3a4.42,4.42,0,0,0,1.83-3.51v-12c0-1-.45-1.61-1.1-1.61Z" style="fill:#455a64"></path><path d="M364.76,140.58l-.11-.06h0a1.15,1.15,0,0,0-1.2.09l-10.92,6.3a4.41,4.41,0,0,0-1.84,3.51v12a1.66,1.66,0,0,0,.6,1.45h0l10.32,5.94,13.33-23.32Z" style="fill:#37474f"></path><path d="M361.77,154.32l-10.65-5.7a4.52,4.52,0,0,0-.43,1.8v12a1.66,1.66,0,0,0,.6,1.45h0l10.32,5.94.16-.27Z" style="fill:#263238"></path><path d="M373.5,163.16,363,169.24c-1,.57-1.77,0-1.77-1.34V156.37A4.23,4.23,0,0,1,363,153l10.53-6.09c1-.56,1.78,0,1.78,1.34v11.53A4.24,4.24,0,0,1,373.5,163.16Z" style="fill:#f5f5f5"></path><path d="M370.72,160.49l-4.93,2.85c-.46.26-.83,0-.83-.63v-5.4a2,2,0,0,1,.83-1.59l4.93-2.85c.46-.26.83,0,.83.63v5.4A2,2,0,0,1,370.72,160.49Z" style="fill:#BA68C8"></path><path d="M370.72,160.49l-4.93,2.85c-.46.26-.83,0-.83-.63v-5.4a2,2,0,0,1,.83-1.59l4.93-2.85c.46-.26.83,0,.83.63v5.4A2,2,0,0,1,370.72,160.49Z" style="fill:#fff;opacity:0.5"></path><path d="M368.25,154.55v3.55l3-1.65v-2.77a.47.47,0,0,0-.69-.41Z" style="fill:#BA68C8"></path><polygon points="368.25 158.1 368.25 161.46 365.34 163.18 365.34 159.7 368.25 158.1" style="fill:#BA68C8"></polygon><path d="M371,153.32a.62.62,0,0,1,0,.18v5.4a1.46,1.46,0,0,1-.56,1.13l-4.94,2.85h0a.42.42,0,0,1,0-.18v-5.4a1.46,1.46,0,0,1,.57-1.13l4.94-2.85h0m.05-.55a.65.65,0,0,0-.33.1l-4.93,2.85a2,2,0,0,0-.83,1.59v5.4c0,.45.2.73.5.73a.77.77,0,0,0,.33-.1l4.93-2.85a2,2,0,0,0,.83-1.59v-5.4c0-.46-.2-.73-.5-.73Z" style="fill:#455a64"></path><path d="M374.4,147.37a1.29,1.29,0,0,1,.09.55v12a3.37,3.37,0,0,1-1.31,2.59l-10.91,6.31-.16.07a1.24,1.24,0,0,1-.1-.55V156.34a3.44,3.44,0,0,1,1.31-2.6l10.92-6.3.16-.07m0-1.06a1.48,1.48,0,0,0-.73.22l-10.91,6.3a4.4,4.4,0,0,0-1.84,3.51v11.95c0,1,.45,1.61,1.11,1.61a1.48,1.48,0,0,0,.73-.22l10.91-6.3a4.4,4.4,0,0,0,1.84-3.51v-12c0-1-.46-1.61-1.11-1.61Z" style="fill:#455a64"></path><path d="M381.74,150.41a.53.53,0,0,0-.1-.06h0a1.16,1.16,0,0,0-1.21.08l-10.92,6.3a4.42,4.42,0,0,0-1.83,3.51v11.95a1.65,1.65,0,0,0,.6,1.46h0l10.32,5.95,13.33-23.32Z" style="fill:#37474f"></path><path d="M378.75,164.14l-10.65-5.7a4.5,4.5,0,0,0-.42,1.8v11.95a1.65,1.65,0,0,0,.6,1.46h0l10.32,5.95.16-.28Z" style="fill:#263238"></path><path d="M390.49,173,380,179.07c-1,.56-1.77,0-1.77-1.34V166.2a4.25,4.25,0,0,1,1.77-3.39l10.54-6.08c1-.57,1.77,0,1.77,1.34V169.6A4.29,4.29,0,0,1,390.49,173Z" style="fill:#f5f5f5"></path><path d="M387.7,170.31l-4.93,2.85c-.46.27-.83,0-.83-.63v-5.4a2,2,0,0,1,.83-1.58l4.93-2.85c.46-.27.83,0,.83.62v5.41A2,2,0,0,1,387.7,170.31Z" style="fill:#BA68C8"></path><path d="M387.7,170.31l-4.93,2.85c-.46.27-.83,0-.83-.63v-5.4a2,2,0,0,1,.83-1.58l4.93-2.85c.46-.27.83,0,.83.62v5.41A2,2,0,0,1,387.7,170.31Z" style="fill:#fff;opacity:0.5"></path><path d="M385.24,164.37v3.56l3-1.65V163.5a.46.46,0,0,0-.69-.4Z" style="fill:#BA68C8"></path><polygon points="385.24 167.93 385.24 171.28 382.32 173.01 382.32 169.53 385.24 167.93" style="fill:#BA68C8"></polygon><path d="M388,163.14a.42.42,0,0,1,0,.18v5.41a1.5,1.5,0,0,1-.57,1.13l-4.93,2.84h0a.62.62,0,0,1,0-.18v-5.4A1.51,1.51,0,0,1,383,166l4.94-2.85h0m0-.54a.65.65,0,0,0-.33.1l-4.93,2.85a2,2,0,0,0-.83,1.58v5.4c0,.46.2.73.5.73a.65.65,0,0,0,.33-.1l4.93-2.85a2,2,0,0,0,.83-1.58v-5.41c0-.45-.2-.72-.5-.72Z" style="fill:#455a64"></path><path d="M391.38,157.2a1.15,1.15,0,0,1,.1.54v11.95a3.41,3.41,0,0,1-1.31,2.6l-10.92,6.3-.16.07a1.23,1.23,0,0,1-.09-.54v-12a3.39,3.39,0,0,1,1.31-2.6l10.91-6.3.16-.07m0-1.07a1.42,1.42,0,0,0-.72.22l-10.92,6.31a4.37,4.37,0,0,0-1.84,3.51v12c0,1,.46,1.6,1.11,1.6a1.48,1.48,0,0,0,.73-.22l10.92-6.3a4.4,4.4,0,0,0,1.83-3.51V157.74c0-1-.45-1.61-1.11-1.61Z" style="fill:#455a64"></path><path d="M332.49,157.37v5.79a5.45,5.45,0,0,1-2.71,4.71l-5.09,2.93-4.61,2.67-4.54,2.61a6.77,6.77,0,0,1-6.77,0l-3.16-1.82a5.41,5.41,0,0,1-2.72-4.71v-5.79l12.21-2.63,6.64-1.44Z" style="fill:#fff"></path><path d="M309.82,176.57a2,2,0,0,0,2.31-2v-5l-1.51-7.47-7.73,1.66v5.8a5.43,5.43,0,0,0,2.72,4.7l3.16,1.82A7.13,7.13,0,0,0,309.82,176.57Z" style="fill:#f5f5f5"></path><polygon points="311.33 169.07 311.33 171.79 300.69 165.65 300.69 162.93 311.33 169.07" style="fill:#BA68C8"></polygon><polygon points="334.69 158.31 311.33 171.79 311.33 169.07 334.69 155.59 334.69 158.31" style="fill:#BA68C8"></polygon><polygon points="334.69 158.31 311.33 171.79 311.33 169.07 334.69 155.59 334.69 158.31" style="fill:#fff;opacity:0.2"></polygon><polygon points="334.69 155.59 311.33 169.07 300.69 162.93 324.05 149.44 334.69 155.59" style="fill:#BA68C8"></polygon><polygon points="334.69 155.59 311.33 169.07 300.69 162.93 324.05 149.44 334.69 155.59" style="fill:#fff;opacity:0.4"></polygon><path d="M311.5,166.79a.33.33,0,0,1-.27-.16.31.31,0,0,1,.12-.43l18-10.49-5.66-3.27-17.48,10.2,3.61,1.94L325,155.72l-1.61-.91-12.88,7.56a.32.32,0,0,1-.32-.55l13-7.64a.33.33,0,0,1,.32,0l2.24,1.27a.32.32,0,0,1,.16.27.3.3,0,0,1-.16.27L310,165.21a.31.31,0,0,1-.31,0l-4.27-2.29a.32.32,0,0,1-.16-.28.35.35,0,0,1,.15-.28l18.13-10.56a.31.31,0,0,1,.32,0l6.29,3.63a.32.32,0,0,1,.16.27.33.33,0,0,1-.16.28l-18.48,10.76A.29.29,0,0,1,311.5,166.79Z" style="fill:#BA68C8"></path><g style="opacity:0.2"><path d="M311.5,166.79a.33.33,0,0,1-.27-.16.31.31,0,0,1,.12-.43l18-10.49-5.66-3.27-17.48,10.2,3.61,1.94L325,155.72l-1.61-.91-12.88,7.56a.32.32,0,0,1-.32-.55l13-7.64a.33.33,0,0,1,.32,0l2.24,1.27a.32.32,0,0,1,.16.27.3.3,0,0,1-.16.27L310,165.21a.31.31,0,0,1-.31,0l-4.27-2.29a.32.32,0,0,1-.16-.28.35.35,0,0,1,.15-.28l18.13-10.56a.31.31,0,0,1,.32,0l6.29,3.63a.32.32,0,0,1,.16.27.33.33,0,0,1-.16.28l-18.48,10.76A.29.29,0,0,1,311.5,166.79Z" style="fill:#fff"></path></g><polygon points="324.69 161.37 324.69 170.8 320.08 173.47 320.08 164.01 315.1 161.13 309.44 157.86 313.96 155.26 321.74 159.69 324.69 161.37" style="fill:#37474f"></polygon><polygon points="320.08 164.01 324.69 161.37 324.69 170.8 320.08 173.47 320.08 164.01" style="fill:#263238"></polygon><path d="M301.3,174.82v5.79a5.46,5.46,0,0,1-2.71,4.71l-5.09,2.93-4.61,2.67-4.53,2.61a6.79,6.79,0,0,1-6.78,0l-3.16-1.82A5.43,5.43,0,0,1,271.7,187v-5.79l12.21-2.63,6.65-1.44Z" style="fill:#fff"></path><path d="M278.64,194a2,2,0,0,0,2.31-2v-5l-1.52-7.47-7.72,1.66V187a5.42,5.42,0,0,0,2.71,4.7l3.16,1.82A6.28,6.28,0,0,0,278.64,194Z" style="fill:#f5f5f5"></path><polygon points="280.15 186.52 280.15 189.24 269.51 183.1 269.51 180.38 280.15 186.52" style="fill:#BA68C8"></polygon><polygon points="303.5 175.76 280.15 189.24 280.15 186.52 303.5 173.03 303.5 175.76" style="fill:#BA68C8"></polygon><polygon points="303.5 175.76 280.15 189.24 280.15 186.52 303.5 173.03 303.5 175.76" style="fill:#fff;opacity:0.2"></polygon><polygon points="303.5 173.03 280.15 186.52 269.51 180.38 292.86 166.89 303.5 173.03" style="fill:#BA68C8"></polygon><polygon points="303.5 173.03 280.15 186.52 269.51 180.38 292.86 166.89 303.5 173.03" style="fill:#fff;opacity:0.4"></polygon><path d="M280.32,184.24a.33.33,0,0,1-.28-.16.32.32,0,0,1,.12-.43l18-10.49-5.67-3.27L275,180.09l3.61,1.94,15.16-8.86-1.6-.91-12.89,7.56a.31.31,0,0,1-.43-.12.31.31,0,0,1,.11-.43l13-7.64a.31.31,0,0,1,.31,0l2.24,1.27a.31.31,0,0,1,0,.54l-15.78,9.23a.31.31,0,0,1-.31,0l-4.26-2.3a.3.3,0,0,1-.17-.27.33.33,0,0,1,.16-.28l18.12-10.57a.36.36,0,0,1,.32,0l6.29,3.64a.3.3,0,0,1,.16.27.32.32,0,0,1-.15.27L280.48,184.2A.32.32,0,0,1,280.32,184.24Z" style="fill:#BA68C8"></path><g style="opacity:0.2"><path d="M280.32,184.24a.33.33,0,0,1-.28-.16.32.32,0,0,1,.12-.43l18-10.49-5.67-3.27L275,180.09l3.61,1.94,15.16-8.86-1.6-.91-12.89,7.56a.31.31,0,0,1-.43-.12.31.31,0,0,1,.11-.43l13-7.64a.31.31,0,0,1,.31,0l2.24,1.27a.31.31,0,0,1,0,.54l-15.78,9.23a.31.31,0,0,1-.31,0l-4.26-2.3a.3.3,0,0,1-.17-.27.33.33,0,0,1,.16-.28l18.12-10.57a.36.36,0,0,1,.32,0l6.29,3.64a.3.3,0,0,1,.16.27.32.32,0,0,1-.15.27L280.48,184.2A.32.32,0,0,1,280.32,184.24Z" style="fill:#fff"></path></g><polygon points="293.5 178.82 293.5 188.25 288.89 190.92 288.89 181.46 283.91 178.57 278.25 175.31 282.78 172.71 290.56 177.13 293.5 178.82" style="fill:#37474f"></polygon><polygon points="288.89 181.46 293.5 178.82 293.5 188.25 288.89 190.92 288.89 181.46" style="fill:#263238"></polygon><path d="M328.92,166.25v11.27c0,1.33.82,2.67,2.58,3.68a13.77,13.77,0,0,0,12.5,0c1.73-1,2.59-2.3,2.59-3.6h0V166.25Z" style="fill:#263238"></path><ellipse cx="337.75" cy="166.39" rx="8.16" ry="4.71" style="fill:#f5f5f5"></ellipse><path d="M340.37,167.9a5.76,5.76,0,0,1-5.24,0c-1.44-.83-1.44-2.19,0-3a5.76,5.76,0,0,1,5.24,0C341.81,165.71,341.81,167.07,340.37,167.9Z" style="fill:#BA68C8"></path><path d="M337.75,162.32a11.66,11.66,0,0,1,5.72,1.35c1.33.77,2.06,1.72,2.06,2.69s-.73,1.93-2.06,2.7a12.79,12.79,0,0,1-11.44,0c-1.33-.77-2.06-1.73-2.06-2.7s.73-1.92,2.06-2.69a11.66,11.66,0,0,1,5.72-1.35m0-1.06a12.76,12.76,0,0,0-6.25,1.5c-3.45,2-3.45,5.22,0,7.21a13.77,13.77,0,0,0,12.5,0c3.45-2,3.45-5.22,0-7.21a12.76,12.76,0,0,0-6.25-1.5Z" style="fill:#455a64"></path><path d="M345.46,175.87v11.27c0,1.34.83,2.67,2.59,3.69a13.83,13.83,0,0,0,12.5,0c1.72-1,2.58-2.3,2.58-3.61h0V175.87Z" style="fill:#37474f"></path><ellipse cx="354.3" cy="176.02" rx="8.17" ry="4.71" style="fill:#f5f5f5"></ellipse><path d="M356.91,177.53a5.8,5.8,0,0,1-5.23,0c-1.45-.84-1.45-2.19,0-3a5.74,5.74,0,0,1,5.23,0C358.36,175.34,358.36,176.69,356.91,177.53Z" style="fill:#BA68C8"></path><path d="M354.3,171.94A11.58,11.58,0,0,1,360,173.3c1.33.76,2.06,1.72,2.06,2.69s-.73,1.93-2.06,2.69a12.73,12.73,0,0,1-11.45,0c-1.33-.76-2.06-1.72-2.06-2.69s.73-1.93,2.06-2.69a11.62,11.62,0,0,1,5.73-1.36m0-1.05a12.81,12.81,0,0,0-6.25,1.49c-3.46,2-3.46,5.23,0,7.22a13.85,13.85,0,0,0,12.5,0c3.45-2,3.45-5.23,0-7.22a12.86,12.86,0,0,0-6.25-1.49Z" style="fill:#455a64"></path><path d="M314.1,174v11.27c0,1.33.83,2.67,2.59,3.68a13.77,13.77,0,0,0,12.5,0c1.72-1,2.58-2.3,2.58-3.61h0V174Z" style="fill:#263238"></path><path d="M328.71,177.44a12.71,12.71,0,0,1-11.55,0c-3.19-1.84-3.19-4.82,0-6.66a12.77,12.77,0,0,1,11.55,0C331.9,172.62,331.9,175.6,328.71,177.44Z" style="fill:#f5f5f5"></path><path d="M325.55,175.62a5.74,5.74,0,0,1-5.23,0c-1.45-.83-1.45-2.19,0-3a5.74,5.74,0,0,1,5.23,0C327,173.43,327,174.79,325.55,175.62Z" style="fill:#BA68C8"></path><path d="M322.94,170a11.68,11.68,0,0,1,5.72,1.35c1.33.77,2.06,1.72,2.06,2.69s-.73,1.93-2.06,2.7a12.81,12.81,0,0,1-11.45,0c-1.33-.77-2.06-1.73-2.06-2.7s.73-1.92,2.06-2.69a11.72,11.72,0,0,1,5.73-1.35m0-1.06a12.7,12.7,0,0,0-6.25,1.5c-3.46,2-3.46,5.22,0,7.21a13.77,13.77,0,0,0,12.5,0c3.45-2,3.45-5.22,0-7.21a12.76,12.76,0,0,0-6.25-1.5Z" style="fill:#455a64"></path><path d="M330.65,183.59v11.27c0,1.33.82,2.67,2.58,3.69a13.83,13.83,0,0,0,12.5,0c1.73-1,2.59-2.3,2.59-3.61h0V183.59Z" style="fill:#37474f"></path><path d="M345.26,187.07a12.77,12.77,0,0,1-11.55,0c-3.19-1.84-3.19-4.83,0-6.67a12.77,12.77,0,0,1,11.55,0C348.44,182.24,348.44,185.23,345.26,187.07Z" style="fill:#f5f5f5"></path><path d="M342.1,185.25a5.82,5.82,0,0,1-5.24,0c-1.44-.84-1.44-2.19,0-3a5.82,5.82,0,0,1,5.24,0C343.55,183.06,343.55,184.41,342.1,185.25Z" style="fill:#BA68C8"></path><path d="M339.48,179.66A11.55,11.55,0,0,1,345.2,181c1.33.76,2.06,1.72,2.06,2.69s-.73,1.93-2.06,2.69a12.71,12.71,0,0,1-11.44,0c-1.33-.76-2.06-1.72-2.06-2.69s.73-1.93,2.06-2.69a11.55,11.55,0,0,1,5.72-1.36m0-1a12.75,12.75,0,0,0-6.25,1.49c-3.45,2-3.45,5.22,0,7.22a13.85,13.85,0,0,0,12.5,0c3.45-2,3.45-5.23,0-7.22a12.72,12.72,0,0,0-6.25-1.49Z" style="fill:#455a64"></path><path d="M329.07,202,329,202l-22-12.74a2.31,2.31,0,0,0-2.33,0l-14.77,8.52,0,0h-.57v1h0a1.13,1.13,0,0,0,.58,1l22,12.74a2.36,2.36,0,0,0,2.33,0L329,204a1.12,1.12,0,0,0,.57-1h0v-1Z" style="fill:#e0e0e0"></path><path d="M304.66,188.29l-14.77,8.53a1.16,1.16,0,0,0,0,2l22,12.74a2.31,2.31,0,0,0,2.33,0L329,203a1.16,1.16,0,0,0,0-2l-22-12.74A2.31,2.31,0,0,0,304.66,188.29Z" style="fill:#f5f5f5"></path><path d="M307,190.58l7.32,4.22a.58.58,0,0,1,0,1l-11.94,6.89a1.13,1.13,0,0,1-1.15,0l-7.32-4.22a.58.58,0,0,1,0-1l11.94-6.89A1.13,1.13,0,0,1,307,190.58Z" style="fill:#f0f0f0"></path><path d="M295.19,199.22l10.63-6.14a1.13,1.13,0,0,1,1.15,0l6,3.47,1.3-.75a.58.58,0,0,0,0-1L307,190.58a1.13,1.13,0,0,0-1.15,0l-11.94,6.89a.58.58,0,0,0,0,1Z" style="fill:#e0e0e0"></path><path d="M318.18,197.34l7.32,4.22a.58.58,0,0,1,0,1l-11.93,6.89a1.15,1.15,0,0,1-1.16,0l-7.32-4.22a.58.58,0,0,1,0-1L317,197.34A1.13,1.13,0,0,1,318.18,197.34Z" style="fill:#f0f0f0"></path><path d="M306.4,206,317,199.84a1.18,1.18,0,0,1,1.15,0l6,3.47,1.3-.75a.58.58,0,0,0,0-1l-7.32-4.22a1.13,1.13,0,0,0-1.15,0l-11.94,6.89a.58.58,0,0,0,0,1Z" style="fill:#e0e0e0"></path><path d="M317,198.79l-11.54,6.66,6.92,4a1.15,1.15,0,0,0,1.16,0l11.53-6.66-6.92-4A1.18,1.18,0,0,0,317,198.79Z" style="fill:#BA68C8"></path><path d="M317,198.79l-11.54,6.66,6.92,4a1.15,1.15,0,0,0,1.16,0l11.53-6.66-6.92-4A1.18,1.18,0,0,0,317,198.79Z" style="fill:#fff;opacity:0.4"></path><path d="M319.05,201a.84.84,0,0,1,0,1.59,3.05,3.05,0,0,1-2.76,0,.84.84,0,0,1,0-1.59A3.05,3.05,0,0,1,319.05,201Z" style="fill:#BA68C8;opacity:0.4"></path><path d="M319.05,201a.84.84,0,0,1,0,1.59,3.05,3.05,0,0,1-2.76,0,.84.84,0,0,1,0-1.59A3.05,3.05,0,0,1,319.05,201Z" style="fill:#fff;opacity:0.4"></path><ellipse cx="314.58" cy="204.7" rx="1.35" ry="0.78" style="fill:#BA68C8;opacity:0.4"></ellipse><ellipse cx="314.58" cy="204.7" rx="1.35" ry="0.78" style="fill:#fff;opacity:0.4"></ellipse><path d="M307.36,198.75a6.65,6.65,0,0,1-6.05,0c-1.67-1-1.67-2.53,0-3.5a21.25,21.25,0,0,0,3-3,28.48,28.48,0,0,0,3,3C309,196.22,309,197.79,307.36,198.75Z" style="fill:#BA68C8"></path><path d="M305.2,196.4a.76.76,0,0,0,.24.48.84.84,0,0,0,.45.11.94.94,0,0,0,.72-.19.61.61,0,0,0,.12-.61,1.89,1.89,0,0,0-.32-.57,12.29,12.29,0,0,0-1.68-2.1C304.37,194.05,305.05,195.74,305.2,196.4Z" style="fill:#fff;opacity:0.4"></path></g></svg>